<mxfile host="app.diagrams.net" agent="Mozilla/5.0 (Windows NT 10.0; Win64; x64) AppleWebKit/537.36 (KHTML, like Gecko) Chrome/134.0.0.0 Safari/537.36 Edg/134.0.0.0" version="24.7.6">
  <diagram name="Página-1" id="PW5RKmy9i0MmptaiwKIt">
    <mxGraphModel dx="1068" dy="471" grid="1" gridSize="10" guides="1" tooltips="1" connect="1" arrows="1" fold="1" page="1" pageScale="1" pageWidth="827" pageHeight="1169" math="0" shadow="0">
      <root>
        <mxCell id="0" />
        <mxCell id="1" parent="0" />
        <mxCell id="687dKwrICeYtoKaNZH3G-19" style="edgeStyle=orthogonalEdgeStyle;rounded=0;orthogonalLoop=1;jettySize=auto;html=1;exitX=0.5;exitY=1;exitDx=0;exitDy=0;entryX=0.5;entryY=0;entryDx=0;entryDy=0;" edge="1" parent="1" source="687dKwrICeYtoKaNZH3G-1" target="687dKwrICeYtoKaNZH3G-14">
          <mxGeometry relative="1" as="geometry" />
        </mxCell>
        <mxCell id="687dKwrICeYtoKaNZH3G-1" value="INÍCIO" style="ellipse;whiteSpace=wrap;html=1;" vertex="1" parent="1">
          <mxGeometry x="80" y="20" width="120" height="50" as="geometry" />
        </mxCell>
        <mxCell id="687dKwrICeYtoKaNZH3G-24" style="edgeStyle=orthogonalEdgeStyle;rounded=0;orthogonalLoop=1;jettySize=auto;html=1;entryX=0;entryY=0.5;entryDx=0;entryDy=0;" edge="1" parent="1" source="687dKwrICeYtoKaNZH3G-4" target="687dKwrICeYtoKaNZH3G-15">
          <mxGeometry relative="1" as="geometry">
            <mxPoint x="-10" y="240" as="targetPoint" />
            <Array as="points">
              <mxPoint x="20" y="370" />
              <mxPoint x="20" y="250" />
            </Array>
          </mxGeometry>
        </mxCell>
        <mxCell id="687dKwrICeYtoKaNZH3G-25" value="NÃO" style="edgeLabel;html=1;align=center;verticalAlign=middle;resizable=0;points=[];" vertex="1" connectable="0" parent="687dKwrICeYtoKaNZH3G-24">
          <mxGeometry x="-0.67" y="-2" relative="1" as="geometry">
            <mxPoint as="offset" />
          </mxGeometry>
        </mxCell>
        <mxCell id="687dKwrICeYtoKaNZH3G-27" style="edgeStyle=orthogonalEdgeStyle;rounded=0;orthogonalLoop=1;jettySize=auto;html=1;entryX=0;entryY=0.5;entryDx=0;entryDy=0;" edge="1" parent="1" source="687dKwrICeYtoKaNZH3G-4" target="687dKwrICeYtoKaNZH3G-26">
          <mxGeometry relative="1" as="geometry">
            <Array as="points">
              <mxPoint x="250" y="378" />
            </Array>
          </mxGeometry>
        </mxCell>
        <mxCell id="687dKwrICeYtoKaNZH3G-28" value="SIM" style="edgeLabel;html=1;align=center;verticalAlign=middle;resizable=0;points=[];" vertex="1" connectable="0" parent="687dKwrICeYtoKaNZH3G-27">
          <mxGeometry x="-0.4857" y="-1" relative="1" as="geometry">
            <mxPoint x="14" y="-1" as="offset" />
          </mxGeometry>
        </mxCell>
        <mxCell id="687dKwrICeYtoKaNZH3G-4" value="Destino é um&lt;div&gt;local frio?&lt;/div&gt;" style="rhombus;whiteSpace=wrap;html=1;" vertex="1" parent="1">
          <mxGeometry x="80" y="320" width="120" height="100" as="geometry" />
        </mxCell>
        <mxCell id="687dKwrICeYtoKaNZH3G-21" style="edgeStyle=orthogonalEdgeStyle;rounded=0;orthogonalLoop=1;jettySize=auto;html=1;entryX=0.5;entryY=0;entryDx=0;entryDy=0;" edge="1" parent="1" source="687dKwrICeYtoKaNZH3G-12" target="687dKwrICeYtoKaNZH3G-15">
          <mxGeometry relative="1" as="geometry" />
        </mxCell>
        <mxCell id="687dKwrICeYtoKaNZH3G-12" value="Definir orçamento para a viagem" style="rounded=0;whiteSpace=wrap;html=1;" vertex="1" parent="1">
          <mxGeometry x="30" y="160" width="220" height="40" as="geometry" />
        </mxCell>
        <mxCell id="687dKwrICeYtoKaNZH3G-20" style="edgeStyle=orthogonalEdgeStyle;rounded=0;orthogonalLoop=1;jettySize=auto;html=1;" edge="1" parent="1" source="687dKwrICeYtoKaNZH3G-14" target="687dKwrICeYtoKaNZH3G-12">
          <mxGeometry relative="1" as="geometry" />
        </mxCell>
        <mxCell id="687dKwrICeYtoKaNZH3G-14" value="Verificar período de férias" style="rounded=0;whiteSpace=wrap;html=1;" vertex="1" parent="1">
          <mxGeometry x="40" y="100" width="200" height="40" as="geometry" />
        </mxCell>
        <mxCell id="687dKwrICeYtoKaNZH3G-23" style="edgeStyle=orthogonalEdgeStyle;rounded=0;orthogonalLoop=1;jettySize=auto;html=1;entryX=0.5;entryY=0;entryDx=0;entryDy=0;" edge="1" parent="1" source="687dKwrICeYtoKaNZH3G-15" target="687dKwrICeYtoKaNZH3G-4">
          <mxGeometry relative="1" as="geometry" />
        </mxCell>
        <mxCell id="687dKwrICeYtoKaNZH3G-15" value="Escolher destino" style="rounded=0;whiteSpace=wrap;html=1;" vertex="1" parent="1">
          <mxGeometry x="40" y="230" width="200" height="40" as="geometry" />
        </mxCell>
        <mxCell id="687dKwrICeYtoKaNZH3G-35" style="edgeStyle=orthogonalEdgeStyle;rounded=0;orthogonalLoop=1;jettySize=auto;html=1;exitX=0.5;exitY=0;exitDx=0;exitDy=0;entryX=0.5;entryY=1;entryDx=0;entryDy=0;" edge="1" parent="1" source="687dKwrICeYtoKaNZH3G-26" target="687dKwrICeYtoKaNZH3G-31">
          <mxGeometry relative="1" as="geometry" />
        </mxCell>
        <mxCell id="687dKwrICeYtoKaNZH3G-26" value="Escolher pacote de viagem de 15 dias dentro do perído de férias" style="rounded=0;whiteSpace=wrap;html=1;" vertex="1" parent="1">
          <mxGeometry x="300" y="345" width="130" height="65" as="geometry" />
        </mxCell>
        <mxCell id="687dKwrICeYtoKaNZH3G-40" style="edgeStyle=orthogonalEdgeStyle;rounded=0;orthogonalLoop=1;jettySize=auto;html=1;exitX=0.5;exitY=0;exitDx=0;exitDy=0;entryX=0.5;entryY=1;entryDx=0;entryDy=0;" edge="1" parent="1" source="687dKwrICeYtoKaNZH3G-31" target="687dKwrICeYtoKaNZH3G-39">
          <mxGeometry relative="1" as="geometry" />
        </mxCell>
        <mxCell id="687dKwrICeYtoKaNZH3G-42" value="SIM" style="edgeLabel;html=1;align=center;verticalAlign=middle;resizable=0;points=[];" vertex="1" connectable="0" parent="687dKwrICeYtoKaNZH3G-40">
          <mxGeometry x="0.008" relative="1" as="geometry">
            <mxPoint as="offset" />
          </mxGeometry>
        </mxCell>
        <mxCell id="687dKwrICeYtoKaNZH3G-79" style="edgeStyle=orthogonalEdgeStyle;rounded=0;orthogonalLoop=1;jettySize=auto;html=1;entryX=1;entryY=0.5;entryDx=0;entryDy=0;" edge="1" parent="1" source="687dKwrICeYtoKaNZH3G-31" target="687dKwrICeYtoKaNZH3G-58">
          <mxGeometry relative="1" as="geometry">
            <Array as="points">
              <mxPoint x="470" y="260" />
              <mxPoint x="470" y="490" />
            </Array>
          </mxGeometry>
        </mxCell>
        <mxCell id="687dKwrICeYtoKaNZH3G-31" value="&lt;div&gt;O vôo do&lt;/div&gt;&lt;div&gt;pacote&lt;/div&gt;&lt;div&gt;é direto ao&lt;/div&gt;&lt;div&gt;destino?&lt;/div&gt;" style="rhombus;whiteSpace=wrap;html=1;" vertex="1" parent="1">
          <mxGeometry x="280" y="210" width="170" height="100" as="geometry" />
        </mxCell>
        <mxCell id="687dKwrICeYtoKaNZH3G-49" style="edgeStyle=orthogonalEdgeStyle;rounded=0;orthogonalLoop=1;jettySize=auto;html=1;entryX=0.5;entryY=0;entryDx=0;entryDy=0;" edge="1" parent="1" source="687dKwrICeYtoKaNZH3G-39" target="687dKwrICeYtoKaNZH3G-48">
          <mxGeometry relative="1" as="geometry">
            <Array as="points">
              <mxPoint x="365" y="40" />
              <mxPoint x="640" y="40" />
            </Array>
          </mxGeometry>
        </mxCell>
        <mxCell id="687dKwrICeYtoKaNZH3G-50" value="SIM&lt;div&gt;&lt;br&gt;&lt;/div&gt;" style="edgeLabel;html=1;align=center;verticalAlign=middle;resizable=0;points=[];" vertex="1" connectable="0" parent="687dKwrICeYtoKaNZH3G-49">
          <mxGeometry x="-0.0527" y="-2" relative="1" as="geometry">
            <mxPoint x="-13" y="6" as="offset" />
          </mxGeometry>
        </mxCell>
        <mxCell id="687dKwrICeYtoKaNZH3G-80" style="edgeStyle=orthogonalEdgeStyle;rounded=0;orthogonalLoop=1;jettySize=auto;html=1;exitX=1;exitY=0.5;exitDx=0;exitDy=0;entryX=1;entryY=0.5;entryDx=0;entryDy=0;" edge="1" parent="1" source="687dKwrICeYtoKaNZH3G-39" target="687dKwrICeYtoKaNZH3G-58">
          <mxGeometry relative="1" as="geometry" />
        </mxCell>
        <mxCell id="687dKwrICeYtoKaNZH3G-81" value="NÃO" style="edgeLabel;html=1;align=center;verticalAlign=middle;resizable=0;points=[];" vertex="1" connectable="0" parent="687dKwrICeYtoKaNZH3G-80">
          <mxGeometry x="-0.0704" y="-1" relative="1" as="geometry">
            <mxPoint as="offset" />
          </mxGeometry>
        </mxCell>
        <mxCell id="687dKwrICeYtoKaNZH3G-39" value="O pacote está&lt;div&gt;dentro do&lt;/div&gt;&lt;div&gt;orçamento?&lt;/div&gt;" style="rhombus;whiteSpace=wrap;html=1;" vertex="1" parent="1">
          <mxGeometry x="280" y="60" width="170" height="100" as="geometry" />
        </mxCell>
        <mxCell id="687dKwrICeYtoKaNZH3G-70" style="edgeStyle=orthogonalEdgeStyle;rounded=0;orthogonalLoop=1;jettySize=auto;html=1;exitX=0.5;exitY=1;exitDx=0;exitDy=0;entryX=0.5;entryY=0;entryDx=0;entryDy=0;" edge="1" parent="1" source="687dKwrICeYtoKaNZH3G-48" target="687dKwrICeYtoKaNZH3G-51">
          <mxGeometry relative="1" as="geometry" />
        </mxCell>
        <mxCell id="687dKwrICeYtoKaNZH3G-48" value="Comprar o pacote" style="rounded=0;whiteSpace=wrap;html=1;" vertex="1" parent="1">
          <mxGeometry x="540" y="90" width="200" height="40" as="geometry" />
        </mxCell>
        <mxCell id="687dKwrICeYtoKaNZH3G-71" style="edgeStyle=orthogonalEdgeStyle;rounded=0;orthogonalLoop=1;jettySize=auto;html=1;exitX=0.5;exitY=1;exitDx=0;exitDy=0;entryX=0.5;entryY=0;entryDx=0;entryDy=0;" edge="1" parent="1" source="687dKwrICeYtoKaNZH3G-51" target="687dKwrICeYtoKaNZH3G-55">
          <mxGeometry relative="1" as="geometry" />
        </mxCell>
        <mxCell id="687dKwrICeYtoKaNZH3G-51" value="Arrumar a mala/mochila" style="rounded=0;whiteSpace=wrap;html=1;" vertex="1" parent="1">
          <mxGeometry x="540" y="150" width="200" height="40" as="geometry" />
        </mxCell>
        <mxCell id="687dKwrICeYtoKaNZH3G-73" style="edgeStyle=orthogonalEdgeStyle;rounded=0;orthogonalLoop=1;jettySize=auto;html=1;exitX=0.5;exitY=1;exitDx=0;exitDy=0;entryX=0.5;entryY=0;entryDx=0;entryDy=0;" edge="1" parent="1" source="687dKwrICeYtoKaNZH3G-55" target="687dKwrICeYtoKaNZH3G-57">
          <mxGeometry relative="1" as="geometry" />
        </mxCell>
        <mxCell id="687dKwrICeYtoKaNZH3G-55" value="Baixar passagem" style="rounded=0;whiteSpace=wrap;html=1;" vertex="1" parent="1">
          <mxGeometry x="540" y="210" width="200" height="40" as="geometry" />
        </mxCell>
        <mxCell id="687dKwrICeYtoKaNZH3G-74" style="edgeStyle=orthogonalEdgeStyle;rounded=0;orthogonalLoop=1;jettySize=auto;html=1;exitX=0.5;exitY=1;exitDx=0;exitDy=0;entryX=0.5;entryY=0;entryDx=0;entryDy=0;" edge="1" parent="1" source="687dKwrICeYtoKaNZH3G-57" target="687dKwrICeYtoKaNZH3G-67">
          <mxGeometry relative="1" as="geometry" />
        </mxCell>
        <mxCell id="687dKwrICeYtoKaNZH3G-57" value="Aguardar viagem" style="rounded=0;whiteSpace=wrap;html=1;" vertex="1" parent="1">
          <mxGeometry x="540" y="270" width="200" height="40" as="geometry" />
        </mxCell>
        <mxCell id="687dKwrICeYtoKaNZH3G-63" style="edgeStyle=orthogonalEdgeStyle;rounded=0;orthogonalLoop=1;jettySize=auto;html=1;entryX=1;entryY=0.5;entryDx=0;entryDy=0;" edge="1" parent="1" source="687dKwrICeYtoKaNZH3G-58" target="687dKwrICeYtoKaNZH3G-60">
          <mxGeometry relative="1" as="geometry" />
        </mxCell>
        <mxCell id="687dKwrICeYtoKaNZH3G-85" value="NÃO" style="edgeLabel;html=1;align=center;verticalAlign=middle;resizable=0;points=[];" vertex="1" connectable="0" parent="687dKwrICeYtoKaNZH3G-63">
          <mxGeometry x="0.0222" relative="1" as="geometry">
            <mxPoint as="offset" />
          </mxGeometry>
        </mxCell>
        <mxCell id="687dKwrICeYtoKaNZH3G-86" style="edgeStyle=orthogonalEdgeStyle;rounded=0;orthogonalLoop=1;jettySize=auto;html=1;entryX=0;entryY=0.5;entryDx=0;entryDy=0;" edge="1" parent="1" source="687dKwrICeYtoKaNZH3G-58" target="687dKwrICeYtoKaNZH3G-77">
          <mxGeometry relative="1" as="geometry">
            <Array as="points">
              <mxPoint x="365" y="560" />
              <mxPoint x="503" y="560" />
              <mxPoint x="503" y="545" />
            </Array>
          </mxGeometry>
        </mxCell>
        <mxCell id="687dKwrICeYtoKaNZH3G-87" value="SIM" style="edgeLabel;html=1;align=center;verticalAlign=middle;resizable=0;points=[];" vertex="1" connectable="0" parent="687dKwrICeYtoKaNZH3G-86">
          <mxGeometry x="-0.3093" y="-3" relative="1" as="geometry">
            <mxPoint as="offset" />
          </mxGeometry>
        </mxCell>
        <mxCell id="687dKwrICeYtoKaNZH3G-58" value="Quer desistir da viagem?" style="rhombus;whiteSpace=wrap;html=1;" vertex="1" parent="1">
          <mxGeometry x="305" y="440" width="120" height="100" as="geometry" />
        </mxCell>
        <mxCell id="687dKwrICeYtoKaNZH3G-83" style="edgeStyle=orthogonalEdgeStyle;rounded=0;orthogonalLoop=1;jettySize=auto;html=1;entryX=0;entryY=0.5;entryDx=0;entryDy=0;" edge="1" parent="1" source="687dKwrICeYtoKaNZH3G-60" target="687dKwrICeYtoKaNZH3G-15">
          <mxGeometry relative="1" as="geometry">
            <Array as="points">
              <mxPoint x="20" y="490" />
              <mxPoint x="20" y="250" />
            </Array>
          </mxGeometry>
        </mxCell>
        <mxCell id="687dKwrICeYtoKaNZH3G-84" value="SIM" style="edgeLabel;html=1;align=center;verticalAlign=middle;resizable=0;points=[];" vertex="1" connectable="0" parent="687dKwrICeYtoKaNZH3G-83">
          <mxGeometry x="-0.8" y="-1" relative="1" as="geometry">
            <mxPoint as="offset" />
          </mxGeometry>
        </mxCell>
        <mxCell id="687dKwrICeYtoKaNZH3G-90" style="edgeStyle=orthogonalEdgeStyle;rounded=0;orthogonalLoop=1;jettySize=auto;html=1;exitX=1;exitY=0;exitDx=0;exitDy=0;entryX=0;entryY=0.75;entryDx=0;entryDy=0;" edge="1" parent="1" source="687dKwrICeYtoKaNZH3G-60" target="687dKwrICeYtoKaNZH3G-26">
          <mxGeometry relative="1" as="geometry" />
        </mxCell>
        <mxCell id="687dKwrICeYtoKaNZH3G-91" value="NÃO" style="edgeLabel;html=1;align=center;verticalAlign=middle;resizable=0;points=[];" vertex="1" connectable="0" parent="687dKwrICeYtoKaNZH3G-90">
          <mxGeometry x="-0.606" y="1" relative="1" as="geometry">
            <mxPoint as="offset" />
          </mxGeometry>
        </mxCell>
        <mxCell id="687dKwrICeYtoKaNZH3G-60" value="Quer escolher&lt;div&gt;outro destino?&lt;/div&gt;" style="rhombus;whiteSpace=wrap;html=1;" vertex="1" parent="1">
          <mxGeometry x="80" y="440" width="120" height="100" as="geometry" />
        </mxCell>
        <mxCell id="687dKwrICeYtoKaNZH3G-75" style="edgeStyle=orthogonalEdgeStyle;rounded=0;orthogonalLoop=1;jettySize=auto;html=1;exitX=0.5;exitY=1;exitDx=0;exitDy=0;entryX=0.5;entryY=0;entryDx=0;entryDy=0;" edge="1" parent="1" source="687dKwrICeYtoKaNZH3G-67" target="687dKwrICeYtoKaNZH3G-68">
          <mxGeometry relative="1" as="geometry" />
        </mxCell>
        <mxCell id="687dKwrICeYtoKaNZH3G-67" value="Ir ao aeroporto" style="rounded=0;whiteSpace=wrap;html=1;" vertex="1" parent="1">
          <mxGeometry x="540" y="330" width="200" height="40" as="geometry" />
        </mxCell>
        <mxCell id="687dKwrICeYtoKaNZH3G-76" style="edgeStyle=orthogonalEdgeStyle;rounded=0;orthogonalLoop=1;jettySize=auto;html=1;exitX=0.5;exitY=1;exitDx=0;exitDy=0;entryX=0.5;entryY=0;entryDx=0;entryDy=0;" edge="1" parent="1" source="687dKwrICeYtoKaNZH3G-68" target="687dKwrICeYtoKaNZH3G-69">
          <mxGeometry relative="1" as="geometry" />
        </mxCell>
        <mxCell id="687dKwrICeYtoKaNZH3G-68" value="Embarcar" style="rounded=0;whiteSpace=wrap;html=1;" vertex="1" parent="1">
          <mxGeometry x="540" y="390" width="200" height="40" as="geometry" />
        </mxCell>
        <mxCell id="687dKwrICeYtoKaNZH3G-78" style="edgeStyle=orthogonalEdgeStyle;rounded=0;orthogonalLoop=1;jettySize=auto;html=1;exitX=0.5;exitY=1;exitDx=0;exitDy=0;entryX=0.5;entryY=0;entryDx=0;entryDy=0;" edge="1" parent="1" source="687dKwrICeYtoKaNZH3G-69" target="687dKwrICeYtoKaNZH3G-77">
          <mxGeometry relative="1" as="geometry" />
        </mxCell>
        <mxCell id="687dKwrICeYtoKaNZH3G-69" value="Chegar ao destino" style="rounded=0;whiteSpace=wrap;html=1;" vertex="1" parent="1">
          <mxGeometry x="540" y="450" width="200" height="40" as="geometry" />
        </mxCell>
        <mxCell id="687dKwrICeYtoKaNZH3G-77" value="FIM" style="ellipse;whiteSpace=wrap;html=1;" vertex="1" parent="1">
          <mxGeometry x="580" y="520" width="120" height="50" as="geometry" />
        </mxCell>
      </root>
    </mxGraphModel>
  </diagram>
</mxfile>
